<svg width="41" height="32" viewBox="0 0 41 32" fill="none" xmlns="http://www.w3.org/2000/svg">
<path d="M37.2061 0.00488281C39.3194 0.112115 41 1.85996 41 4V28C41 30.14 39.3194 31.8879 37.2061 31.9951L37 32H4L3.79395 31.9951C3.22301 31.9661 2.68433 31.8161 2.20117 31.5723C1.34168 31.2633 0.707344 30.5799 0.412109 29.7686C0.148739 29.2352 0 28.635 0 28V4C0 1.85997 1.68057 0.112124 3.79395 0.00488281L4 0H37L37.2061 0.00488281ZM29.4326 15.0137C29.0829 14.6698 28.5403 14.6335 28.1494 14.9141L28.0732 14.9736L22.9248 19.4766L29.0693 26.8252C29.8806 27.7954 29.9448 29.0163 29.4932 30H37C38.1046 30 39 29.1046 39 28V24.4189L29.4326 15.0137ZM15.7676 14.0352C15.3929 13.587 14.7231 13.5591 14.3115 13.9512L14.2324 14.0352L2.46582 28.1084C2.24241 28.3756 2.18985 28.6996 2.2627 28.9893C2.43358 29.2887 2.68008 29.5379 2.97559 29.7148C3.05656 29.7358 3.14191 29.75 3.23242 29.75H26.7676C27.5631 29.7499 28.0195 28.8796 27.625 28.2344L27.5342 28.1084L15.7676 14.0352ZM4 2C2.89544 2.00001 2 2.89544 2 4V25.5459L12.6982 12.752C13.8974 11.318 16.1026 11.318 17.3018 12.752L21.6416 17.9424L26.7559 13.4688L26.9844 13.2881C28.1571 12.4462 29.7857 12.5554 30.835 13.5869L39 21.6143V4C39 2.89543 38.1046 2 37 2H4ZM32 4C34.2091 4 36 5.79086 36 8C36 10.2091 34.2091 12 32 12C29.7909 12 28 10.2091 28 8C28 5.79086 29.7909 4 32 4ZM32 5.5C30.6193 5.5 29.5 6.61929 29.5 8C29.5 9.38071 30.6193 10.5 32 10.5C33.3807 10.5 34.5 9.38071 34.5 8C34.5 6.61929 33.3807 5.5 32 5.5Z" fill="#A8A8A8"/>
</svg>
