<svg width="75" height="59" viewBox="0 0 75 59" fill="none" xmlns="http://www.w3.org/2000/svg">
<path d="M71.2061 0.00488281C73.3192 0.112333 75 1.86011 75 4V54.5361L74.9951 54.7422C74.8916 56.7874 73.2511 58.4273 71.2061 58.5312L71 58.5361H4L3.79395 58.5312C1.74873 58.4274 0.108441 56.7875 0.00488281 54.7422L0 54.5361V4C0 1.86001 1.68062 0.112184 3.79395 0.00488281L4 0H71L71.2061 0.00488281ZM54.9629 25.748C54.6157 25.417 54.0863 25.3815 53.7002 25.6514L53.625 25.71L43.1113 34.6445L58.5889 53.1553C59.4578 54.1945 59.4704 55.5213 58.9092 56.5361H71C72.1044 56.5359 73 55.6406 73 54.5361V42.9756L54.9629 25.748ZM30.29 22.4297C29.881 21.9408 29.1247 21.9538 28.7334 22.457L3.84375 54.4658C3.33364 55.1225 3.80133 56.0786 4.63281 56.0791H56.2871C57.1356 56.0791 57.5987 55.0895 57.0547 54.4385L30.29 22.4297ZM4 2C2.89549 2.00007 2 2.89548 2 4V53.6387C2.04004 53.5667 2.08297 53.4951 2.12988 53.4248L2.26465 53.2383L27.1553 21.2295C28.3294 19.7198 30.5972 19.6795 31.8242 21.1465L41.8281 33.1104L52.3291 24.1855L52.5547 24.0117C53.7137 23.2009 55.3029 23.307 56.3447 24.3018L73 40.2109V4C73 2.89558 72.1044 2.00024 71 2H4ZM60.9131 7.32715C64.7791 7.52319 67.8535 10.72 67.8535 14.6348L67.8447 15.0107C67.6488 18.8766 64.4516 21.9508 60.5371 21.9512L60.1602 21.9424C56.4188 21.7527 53.4192 18.7521 53.2295 15.0107L53.2197 14.6348C53.2197 10.5937 56.496 7.31738 60.5371 7.31738L60.9131 7.32715ZM60.5371 8.81738C57.3244 8.81738 54.7197 11.4221 54.7197 14.6348C54.7201 17.8472 57.3246 20.4512 60.5371 20.4512C63.7493 20.4508 66.3532 17.8469 66.3535 14.6348C66.3535 11.4223 63.7495 8.81774 60.5371 8.81738Z" fill="#DDDDDD"/>
</svg>
