<svg width="20" height="18" viewBox="0 0 20 18" fill="none" xmlns="http://www.w3.org/2000/svg">
<path d="M7.50195 5.875C7.50195 6.91053 6.66249 7.75 5.62695 7.75C4.59142 7.75 3.75195 6.91053 3.75195 5.875C3.75195 4.83947 4.59142 4 5.62695 4C6.66249 4 7.50195 4.83947 7.50195 5.875Z" fill="white"/>
<path d="M2.50195 0.25C1.12124 0.25 0.00195312 1.36929 0.00195312 2.75V15.25C0.00195312 16.6307 1.12124 17.75 2.50195 17.75H17.502C18.8827 17.75 20.002 16.6307 20.002 15.25V2.75C20.002 1.36929 18.8827 0.25 17.502 0.25H2.50195ZM17.502 1.5C18.1923 1.5 18.752 2.05964 18.752 2.75V10.875L14.0315 8.441C13.7908 8.32069 13.5002 8.36785 13.31 8.55808L8.67232 13.1958L5.34864 10.98C5.10075 10.8147 4.77068 10.8474 4.56001 11.0581L1.25195 14V2.75C1.25195 2.05964 1.8116 1.5 2.50195 1.5H17.502Z" fill="white"/>
</svg>
